<?xml version="1.0" encoding="UTF-8"?>
<!DOCTYPE svg PUBLIC "-//W3C//DTD SVG 1.1//EN" "http://www.w3.org/Graphics/SVG/1.1/DTD/svg11.dtd">
<svg width="233mm" height="161mm" viewBox="0 0 23300 16100" version="1.1" baseProfile="tiny" xmlns="http://www.w3.org/2000/svg" stroke-width="28.222" stroke-linejoin="round" xml:space="preserve">
 <path fill="rgb(255,255,255)" stroke="none" d="M 11637,16129 L 0,16129 0,0 23274,0 23274,16129 11637,16129 Z"/>
 <path fill="none" stroke="rgb(179,179,179)" stroke-linejoin="round" d="M 11385,14627 L 2018,14627 2018,2764 20751,2764 20751,14627 11385,14627 Z"/>
 <path fill="none" stroke="rgb(179,179,179)" stroke-linejoin="round" d="M 20751,14626 L 2018,14626"/>
 <path fill="none" stroke="rgb(179,179,179)" stroke-linejoin="round" d="M 20751,12931 L 2018,12931"/>
 <path fill="none" stroke="rgb(179,179,179)" stroke-linejoin="round" d="M 20751,11236 L 2018,11236"/>
 <path fill="none" stroke="rgb(179,179,179)" stroke-linejoin="round" d="M 20751,9541 L 2018,9541"/>
 <path fill="none" stroke="rgb(179,179,179)" stroke-linejoin="round" d="M 20751,7847 L 2018,7847"/>
 <path fill="none" stroke="rgb(179,179,179)" stroke-linejoin="round" d="M 20751,6152 L 2018,6152"/>
 <path fill="none" stroke="rgb(179,179,179)" stroke-linejoin="round" d="M 20751,4457 L 2018,4457"/>
 <path fill="none" stroke="rgb(179,179,179)" stroke-linejoin="round" d="M 20751,2763 L 2018,2763"/>
 <path fill="none" stroke="rgb(179,179,179)" stroke-linejoin="round" d="M 2018,7997 L 2018,7847"/>
 <path fill="none" stroke="rgb(179,179,179)" stroke-linejoin="round" d="M 2018,7997 L 2018,7847"/>
 <path fill="none" stroke="rgb(179,179,179)" stroke-linejoin="round" d="M 3120,7997 L 3120,7847"/>
 <path fill="none" stroke="rgb(179,179,179)" stroke-linejoin="round" d="M 3120,7997 L 3120,7847"/>
 <path fill="none" stroke="rgb(179,179,179)" stroke-linejoin="round" d="M 4223,7997 L 4223,7847"/>
 <path fill="none" stroke="rgb(179,179,179)" stroke-linejoin="round" d="M 4223,7997 L 4223,7847"/>
 <path fill="none" stroke="rgb(179,179,179)" stroke-linejoin="round" d="M 5326,7997 L 5326,7847"/>
 <path fill="none" stroke="rgb(179,179,179)" stroke-linejoin="round" d="M 5326,7997 L 5326,7847"/>
 <path fill="none" stroke="rgb(179,179,179)" stroke-linejoin="round" d="M 6428,7997 L 6428,7847"/>
 <path fill="none" stroke="rgb(179,179,179)" stroke-linejoin="round" d="M 6428,7997 L 6428,7847"/>
 <path fill="none" stroke="rgb(179,179,179)" stroke-linejoin="round" d="M 7531,7997 L 7531,7847"/>
 <path fill="none" stroke="rgb(179,179,179)" stroke-linejoin="round" d="M 7531,7997 L 7531,7847"/>
 <path fill="none" stroke="rgb(179,179,179)" stroke-linejoin="round" d="M 8634,7997 L 8634,7847"/>
 <path fill="none" stroke="rgb(179,179,179)" stroke-linejoin="round" d="M 8634,7997 L 8634,7847"/>
 <path fill="none" stroke="rgb(179,179,179)" stroke-linejoin="round" d="M 9736,7997 L 9736,7847"/>
 <path fill="none" stroke="rgb(179,179,179)" stroke-linejoin="round" d="M 9736,7997 L 9736,7847"/>
 <path fill="none" stroke="rgb(179,179,179)" stroke-linejoin="round" d="M 10839,7997 L 10839,7847"/>
 <path fill="none" stroke="rgb(179,179,179)" stroke-linejoin="round" d="M 10839,7997 L 10839,7847"/>
 <path fill="none" stroke="rgb(179,179,179)" stroke-linejoin="round" d="M 11941,7997 L 11941,7847"/>
 <path fill="none" stroke="rgb(179,179,179)" stroke-linejoin="round" d="M 11941,7997 L 11941,7847"/>
 <path fill="none" stroke="rgb(179,179,179)" stroke-linejoin="round" d="M 13043,7997 L 13043,7847"/>
 <path fill="none" stroke="rgb(179,179,179)" stroke-linejoin="round" d="M 13043,7997 L 13043,7847"/>
 <path fill="none" stroke="rgb(179,179,179)" stroke-linejoin="round" d="M 14146,7997 L 14146,7847"/>
 <path fill="none" stroke="rgb(179,179,179)" stroke-linejoin="round" d="M 14146,7997 L 14146,7847"/>
 <path fill="none" stroke="rgb(179,179,179)" stroke-linejoin="round" d="M 15249,7997 L 15249,7847"/>
 <path fill="none" stroke="rgb(179,179,179)" stroke-linejoin="round" d="M 15249,7997 L 15249,7847"/>
 <path fill="none" stroke="rgb(179,179,179)" stroke-linejoin="round" d="M 16351,7997 L 16351,7847"/>
 <path fill="none" stroke="rgb(179,179,179)" stroke-linejoin="round" d="M 16351,7997 L 16351,7847"/>
 <path fill="none" stroke="rgb(179,179,179)" stroke-linejoin="round" d="M 17454,7997 L 17454,7847"/>
 <path fill="none" stroke="rgb(179,179,179)" stroke-linejoin="round" d="M 17454,7997 L 17454,7847"/>
 <path fill="none" stroke="rgb(179,179,179)" stroke-linejoin="round" d="M 18557,7997 L 18557,7847"/>
 <path fill="none" stroke="rgb(179,179,179)" stroke-linejoin="round" d="M 18557,7997 L 18557,7847"/>
 <path fill="none" stroke="rgb(179,179,179)" stroke-linejoin="round" d="M 19659,7997 L 19659,7847"/>
 <path fill="none" stroke="rgb(179,179,179)" stroke-linejoin="round" d="M 19659,7997 L 19659,7847"/>
 <path fill="none" stroke="rgb(179,179,179)" stroke-linejoin="round" d="M 2018,7847 L 20751,7847"/>
 <path fill="none" stroke="rgb(179,179,179)" stroke-linejoin="round" d="M 1868,14626 L 2018,14626"/>
 <path fill="none" stroke="rgb(179,179,179)" stroke-linejoin="round" d="M 1868,14626 L 2018,14626"/>
 <path fill="none" stroke="rgb(179,179,179)" stroke-linejoin="round" d="M 1868,12931 L 2018,12931"/>
 <path fill="none" stroke="rgb(179,179,179)" stroke-linejoin="round" d="M 1868,12931 L 2018,12931"/>
 <path fill="none" stroke="rgb(179,179,179)" stroke-linejoin="round" d="M 1868,11236 L 2018,11236"/>
 <path fill="none" stroke="rgb(179,179,179)" stroke-linejoin="round" d="M 1868,11236 L 2018,11236"/>
 <path fill="none" stroke="rgb(179,179,179)" stroke-linejoin="round" d="M 1868,9541 L 2018,9541"/>
 <path fill="none" stroke="rgb(179,179,179)" stroke-linejoin="round" d="M 1868,9541 L 2018,9541"/>
 <path fill="none" stroke="rgb(179,179,179)" stroke-linejoin="round" d="M 1868,7847 L 2018,7847"/>
 <path fill="none" stroke="rgb(179,179,179)" stroke-linejoin="round" d="M 1868,7847 L 2018,7847"/>
 <path fill="none" stroke="rgb(179,179,179)" stroke-linejoin="round" d="M 1868,6152 L 2018,6152"/>
 <path fill="none" stroke="rgb(179,179,179)" stroke-linejoin="round" d="M 1868,6152 L 2018,6152"/>
 <path fill="none" stroke="rgb(179,179,179)" stroke-linejoin="round" d="M 1868,4457 L 2018,4457"/>
 <path fill="none" stroke="rgb(179,179,179)" stroke-linejoin="round" d="M 1868,4457 L 2018,4457"/>
 <path fill="none" stroke="rgb(179,179,179)" stroke-linejoin="round" d="M 1868,2763 L 2018,2763"/>
 <path fill="none" stroke="rgb(179,179,179)" stroke-linejoin="round" d="M 1868,2763 L 2018,2763"/>
 <path fill="none" stroke="rgb(179,179,179)" stroke-linejoin="round" d="M 2018,14626 L 2018,2763"/>
 <path fill="none" stroke="rgb(255,66,14)" stroke-width="80" stroke-linejoin="round" d="M 2018,7847 L 2033,7847 2046,7847 2061,7847 2074,7847 2089,7847 2102,7847 2115,7847 2130,7847 2143,7847 2158,7847 2171,7847 2186,7847 2200,7847 2213,7847 2228,7847 2241,7847 2256,7847 2269,7847 2282,7847 2297,7847 2310,7847 2325,7847 2338,7847 2354,7847 2367,7847 2380,7847 2395,7847 2408,7847 2423,7847 2436,7847 2451,7847 2464,7847 2477,7847 2492,7847 2506,7847 2521,7847 2534,7847 2547,7847 2562,7847 2575,7847 2590,7847 2603,7847 2618,7847 2631,7847 2644,7847 2659,7847 2673,7847 2688,7847 2701,7847 2716,7847 2729,7847 2742,7847 2757,7847 2770,7847 2785,7847 2798,7847 2812,7847 2827,7847 2840,7847 2855,7847 2868,7847 2883,7847 2896,7847 2909,7847 2924,7847 2937,7847 2952,7847 2965,7847 2979,7847 2994,7847 3007,7847 3022,7847 3035,7847 3050,7847 3063,7847 3076,7847 3091,7847 3104,7847 3119,7847 3133,7847 3148,7847 3161,7847 3174,7847 3189,7847 3202,7847 3217,7847 3230,7847 3243,7847 3258,7847 3271,7847 3286,7847 3300,7847 3315,7847 3328,7847 3341,7847 3356,7847 3369,7847 3384,7847 3397,7847 3412,7847 3425,7847 3439,7847 3454,7847 3467,7847 3482,7847 3495,7847 3508,7847 3523,7847 3536,7847 3551,7847 3564,7847 3579,7847 3592,7847 3606,7847 3621,7847 3634,7847 3649,7847 3662,7847 3675,7847 3690,7847 3703,7847 3718,7847 3731,7847 3746,7847 3760,7847 3773,7847 3788,7847 3801,7847 3816,7847 3829,7847 3844,7847 3857,7847 3870,7847 3885,7847 3898,7847 3913,7847 3927,7847 3940,7847 3955,7847 3968,7847 3983,7847 3996,7847 4011,7847 4024,7847 4037,7847 4052,7847 4065,7847 4080,7847 4094,7847 4109,7847 4122,7847 4135,7847 4150,7847 4163,7847 4178,7847 4191,7847 4204,7847 4219,7847 4233,7847 4248,7847 4261,7847 4276,7847 4289,7847 4302,7847 4317,7847 4330,7847 4345,7847 4358,7847 4371,7847 4386,7847 4400,7847 4415,7847 4428,7847 4443,7847 4456,7847 4469,7847 4484,7847 4497,7847 4512,7847 4525,7847 4540,7847 4554,7847 4567,7847 4582,7847 4595,7847 4610,7847 4623,7847 4636,7847 4651,7847 4664,7847 4679,7847 4692,7847 4707,7847 4721,7847 4734,7847 4749,7847 4762,7847 4777,7847 4790,7847 4805,7847 4818,7847 4831,7847 4846,7847 4860,7847 4875,7847 4888,7847 4901,7847 4916,7847 4929,7847 4944,7847 4957,7847 4972,7847 4985,7847 4998,7847 5013,7847 5027,7847 5042,7847 5055,7847 5068,7847 5083,7847 5096,7847 5111,7847 5124,7847 5139,7847 5152,7847 5165,7847 5181,7847 5194,7847 5209,7847 5222,7847 5237,7847 5250,7847 5263,7847 5278,7847 5291,7847 5306,7847 5319,7847 5333,7847 5348,7847 5361,7847 5376,7847 5389,7847 5404,7847 5417,7847 5430,7847 5445,7847 5458,7847 5473,7847 5486,7847 5502,7847 5515,7847 5528,7847 5543,7847 5556,7847 5571,7847 5584,7847 5597,7847 5612,7847 5625,7847 5640,7847 5654,7847 5669,7847 5682,7847 5695,7847 5710,7847 5723,7847 5738,7847 5751,7847 5764,7847 5779,7847 5792,7847 5807,7847 5821,7847 5836,7847 5849,7847 5862,7847 5877,7847 5890,7847 5905,7847 5918,7847 5933,7847 5946,7847 5960,7847 5975,7847 5988,7847 6003,7847 6016,7847 6029,7847 6044,7847 6057,7847 6072,7847 6085,7847 6100,7847 6113,7847 6127,7847 6142,7847 6155,7847 6170,7847 6183,7847 6198,7847 6211,7847 6224,7847 6239,7847 6252,7847 6267,7847 6281,7847 6294,7847 6309,7847 6322,7847 6337,7847 6350,7847 6365,7847 6378,7847 6391,7847 6406,7847 6419,7847 6434,7847 6448,7847 6461,7847 6476,7847 6489,7847 6504,7847 6517,7847 6532,7847 6545,7847 6558,7847 6573,7847 6587,7847 6602,7847 6615,7847 6630,7847 6643,7847 6656,7847 6671,7847 6684,7847 6699,7847 6712,7847 6725,7847 6740,7847 6754,7847 6769,7847 6782,7847 6797,7847 6810,7847 6823,7847 6838,7847 6851,7847 6866,7847 6879,7847 6894,7847 6907,7847 6921,7847 6936,7847 6949,7847 6964,7847 6977,7847 6990,7847 7005,7847 7018,7847 7033,7847 7046,7847 7061,7847 7075,7847 7088,7847 7103,7847 7116,7847 7131,7847 7144,7847 7159,7847 7172,7847 7185,7847 7200,7847 7213,7847 7228,7847 7242,7847 7255,7847 7270,7847 7283,7847 7298,7847 7311,7847 7326,7847 7339,7847 7352,7847 7367,7847 7381,7847 7396,7847 7409,7847 7422,7847 7437,7847 7450,7847 7465,7847 7478,7847 7493,7847 7506,7847 7519,7847 7534,7847 7548,7847 7563,7847 7576,7847 7591,7847 7604,7847 7617,7847 7632,7847 7645,7847 7660,7847 7673,7847 7687,7847 7702,7847 7715,7847 7730,7847 7743,7847 7758,7847 7771,7847 7784,7847 7799,7847 7812,7847 7827,7847 7840,7847 7855,7847 7869,7847 7882,7847 7897,7847 7910,7847 7925,7847 7938,7847 7951,7847 7966,7847 7979,7847 7994,7847 8008,7847 8023,7847 8036,7847 8049,7847 8064,7847 8077,7847 8092,7847 8105,7847 8118,7847 8133,7847 8146,7847 8161,7847 8175,7847 8190,7847 8203,7847 8216,7847 8231,7847 8244,7847 8259,7847 8272,7847 8287,7847 8300,7847 8313,7847 8329,7847 8342,7847 8357,7847 8370,7847 8383,7847 8398,7847 8411,7847 8426,7847 8439,7847 8454,7847 8467,7847 8481,7847 8496,7847 8509,7847 8524,7847 8537,7847 8552,7847 8565,7847 8578,7847 8593,7847 8606,7847 8621,7847 8634,7847 8648,7847 8663,7847 8676,7847 8691,7847 8704,7847 8719,7847 8732,7847 8745,7847 8760,7847 8773,7847 8788,7847 8802,7847 8815,7847 8830,7847 8843,7847 8858,7847 8871,7847 8886,7847 8899,7847 8912,7847 8927,7847 8940,7847 8955,7847 8969,7847 8984,7847 8997,7847 9010,7847 9025,7847 9038,7847 9053,7847 9066,7847 9079,7847 9094,7847 9108,7847 9123,7847 9136,7847 9151,7847 9164,7847 9177,7847 9192,7847 9205,7847 9220,7847 9233,7847 9248,7847 9261,7847 9275,7847 9290,7847 9303,7847 9318,7847 9331,7847 9344,7847 9359,7847 9372,7847 9387,7847 9400,7847 9415,7847 9429,7847 9442,7847 9457,7847 9470,7847 9485,7847 9498,7847 9511,7847 9526,7847 9539,7847 9554,7847 9567,7847 9582,7847 9596,7847 9609,7847 9624,7847 9637,7847 9652,7847 9665,7847 9680,7847 9693,7847 9706,7847 9721,7847 9734,7847 9750,7847 9763,7847 9776,7847 9791,7847 9804,7847 9819,7847 9832,7847 9847,7847 9860,7847 9873,7847 9888,7847 9902,7847 9917,7847 9930,7847 9945,7847 9958,7847 9971,7847 9986,7847 9999,7847 10014,7847 10027,7847 10040,7847 10055,7847 10069,7847 10084,7847 10097,7847 10112,7847 10125,7847 10138,7847 10153,7847 10166,7847 10181,7847 10194,7847 10208,7847 10223,7847 10236,7847 10251,7847 10264,7847 10279,7847 10292,7847 10305,7847 10320,7847 10333,7847 10348,7847 10361,7847 10376,7847 10390,7847 10403,7847 10418,7847 10431,7847 10446,7847 10459,7847 10472,7847 10487,7847 10500,7847 10515,7847 10529,7847 10544,7847 10557,7847 10570,7847 10585,7847 10598,7847 10613,7847 10626,7847 10641,7847 10654,7847 10667,7847 10682,7847 10696,7847 10711,7847 10724,7847 10737,7847 10752,7847 10765,7847 10780,7847 10793,7847 10808,7847 10821,7847 10835,7847 10850,7847 10863,7847 10878,7847 10891,7847 10904,7847 10919,7847 10932,7847 10947,7847 10960,7847 10975,7847 10988,7847 11002,7847 11017,7847 11030,7847 11045,7847 11058,7847 11073,7847 11086,7847 11099,7847 11114,7847 11127,7847 11142,7847 11156,7847 11169,7847 11184,7847 11197,7847 11212,7847 11225,7847 11240,7847 11253,7847 11266,7847 11281,7847 11294,7847 11309,7847 11323,7847 11338,7847 11351,7847 11364,7847 11379,7847 11392,7847 11407,7847 11420,7847 11433,7847 11448,7847 11461,7847 11477,7847 11490,7847 11505,7847 11518,7847 11531,7847 11546,7847 11559,7847 11574,7847 11587,7847 11600,7847 11615,7847 11629,7847 11643,7847 11656,7847 11671,7847 11684,7847 11697,7847 11712,7847 11725,7847 11740,7847 11753,7847 11768,7847 11781,7847 11795,7847 11810,7847 11823,7847 11838,7847 11851,7847 11864,7847 11879,7847 11892,7847 11907,7847 11920,7847 11935,7847 11949,7847 11962,7847 11977,7847 11990,7847 12005,7847 12018,7847 12033,7847 12046,7847 12059,7847 12074,7847 12087,7847 12102,7847 12116,7847 12129,7847 12144,7847 12157,7847 12172,7847 12185,7847 12200,7847 12213,7847 12226,7847 12241,7847 12255,7847 12270,7847 12283,7847 12298,7847 12311,7847 12324,7847 12339,7847 12352,7847 12367,7847 12380,7847 12393,7847 12408,7847 12422,7847 12437,7847 12450,7847 12465,7847 12478,7847 12491,7847 12506,7847 12519,7847 12534,7847 12547,7847 12561,7847 12576,7847 12589,7847 12604,7847 12617,7847 12632,7847 12645,7847 12658,7847 12673,7847 12686,7847 12701,7847 12714,7847 12729,7847 12743,7847 12756,7847 12771,7847 12784,7847 12799,7847 12812,7847 12825,7847 12840,7847 12853,7847 12868,7847 12881,7847 12897,7847 12910,7847 12923,7847 12938,7847 12951,7847 12966,7847 12979,7847 12994,7847 13007,7847 13020,7847 13035,7847 13049,7847 13064,7847 13077,7847 13090,7847 13105,7847 13118,7847 13133,7847 13146,7847 13161,7847 13174,7847 13187,7847 13202,7847 13216,7847 13231,7847 13244,7847 13257,7847 13272,7847 13285,7847 13300,7847 13313,7847 13328,7847 13341,7847 13355,7847 13370,7847 13383,7847 13398,7847 13411,7847 13426,7847 13439,7847 13452,7847 13467,7847 13480,7847 13495,7847 13508,7847 13522,7847 13537,7847 13550,7847 13565,7847 13578,7847 13593,7847 13606,7847 13619,7847 13634,7847 13647,7847 13662,7847 13676,7847 13691,7847 13704,7847 13717,7847 13732,7847 13745,7847 13760,7847 13773,7847 13786,7847 13801,7847 13814,7847 13829,7847 13843,7847 13858,7847 13871,7847 13884,7847 13899,7847 13912,7847 13927,7847 13940,7847 13953,7847 13968,7847 13982,7847 13997,7847 14010,7847 14025,7847 14038,7847 14051,7847 14066,7847 14079,7847 14094,7847 14107,7847 14122,7847 14135,7847 14149,7847 14164,7847 14177,7847 14192,7847 14205,7847 14218,7847 14233,7847 14246,7847 14261,7847 14274,7847 14289,7847 14303,7847 14316,7847 14331,7847 14344,7847 14359,7847 14372,7847 14387,7847 14400,7847 14413,7847 14428,7847 14441,7847 14456,7847 14470,7847 14483,7847 14498,7847 14511,7847 14526,7847 14539,7847 14554,7847 14567,7847 14580,7847 14595,7847 14608,7847 14623,7847 14637,7847 14650,7847 14665,7847 14678,7847 14693,7847 14706,7847 14721,7847 14734,7847 14747,7847 14762,7847 14776,7847 14791,7847 14804,7847 14819,7847 14832,7847 14845,7847 14860,7847 14873,7847 14888,7847 14901,7847 14914,7847 14929,7847 14943,7847 14958,7847 14971,7847 14986,7847 14999,7847 15012,7847 15027,7847 15040,7847 15055,7847 15068,7847 15083,7847 15097,7847 15110,7847 15125,7847 15138,7847 15153,7847 15166,7847 15179,7847 15194,7847 15207,7847 15222,7847 15235,7847 15250,7847 15264,7847 15277,7847 15292,7847 15305,7847 15320,7847 15333,7847 15346,7847 15361,7847 15374,7847 15389,7847 15403,7847 15418,7847 15431,7847 15444,7847 15459,7847 15472,7847 15487,7847 15500,7847 15515,7847 15528,7847 15541,7847 15556,7847 15570,7847 15585,7847 15598,7847 15611,7847 15626,7847 15639,7847 15654,7847 15667,7847 15682,7847 15695,7847 15708,7847 15724,7847 15737,7847 15752,7847 15765,7847 15780,7847 15793,7847 15806,7847 15821,7847 15834,7847 15849,7847 15862,7847 15876,7847 15891,7847 15904,7847 15919,7847 15932,7847 15947,7847 15960,7847 15973,7847 15988,7847 16001,7847 16016,7847 16029,7847 16043,7847 16058,7847 16071,7847 16086,7847 16099,7847 16114,7847 16127,7847 16140,7847 16155,7847 16168,7847 16183,7847 16197,7847 16212,7847 16225,7847 16238,7847 16253,7847 16266,7847 16281,7847 16294,7847 16307,7847 16322,7847 16335,7847 16350,7847 16364,7847 16379,7847 16392,7847 16405,7847 16420,7847 16433,7847 16448,7847 16461,7847 16476,7847 16489,7847 16503,7847 16518,7847 16531,7847 16546,7847 16559,7847 16572,7847 16587,7847 16600,7847 16615,7847 16628,7847 16643,7847 16656,7847 16670,7847 16685,7847 16698,7847 16713,7847 16726,7847 16739,7847 16754,7847 16767,7847 16782,7847 16795,7847 16810,7847 16824,7847 16837,7847 16852,7847 16865,7847 16880,7847 16893,7847 16908,7847 16921,7847 16934,7847 16949,7847 16962,7847 16977,7847 16991,7847 17004,7847 17019,7847 17032,7847 17047,7847 17060,7847 17075,7847 17088,7847 17101,7847 17116,7847 17130,7847 17145,7847 17158,7847 17173,7847 17186,7847 17199,7847 17214,7847 17227,7847 17242,7847 17255,7847 17268,7847 17283,7847 17297,7847 17312,7847 17325,7847 17340,7847 17353,7847 17366,7847 17381,7847 17394,7847 17409,7847 17422,7847 17437,7847 17451,7847 17464,7847 17479,7847 17492,7847 17507,7847 17520,7847 17533,7847 17548,7847 17561,7847 17576,7847 17589,7847 17604,7847 17618,7847 17631,7847 17646,7847 17659,7847 17674,7847 17687,7847 17700,7847 17715,7847 17728,7847 17743,7847 17756,7847 17771,7847 17785,7847 17798,7847 17813,7847 17826,7847 17841,7847 17854,7847 17869,7847 17882,7847 17895,7847 17910,7847 17924,7847 17939,7847 17952,7847 17965,7847 17980,7847 17993,7847 18008,7847 18021,7847 18036,7847 18049,7847 18062,7847 18077,7847 18091,7847 18106,7847 18119,7847 18134,7847 18147,7847 18160,7847 18175,7847 18188,7847 18203,7847 18216,7847 18230,7847 18245,7847 18258,7847 18273,7847 18286,7847 18301,7847 18314,7847 18327,7847 18342,7847 18355,7847 18370,7847 18383,7847 18397,7847 18412,7847 18425,7847 18440,7847 18453,7847 18468,7847 18481,7847 18494,7847 18509,7847 18522,7847 18537,7847 18551,7847 18566,7847 18579,7847 18592,7847 18607,7847 18620,7847 18635,7847 18648,7847 18661,7847 18676,7847 18689,7847 18704,7847 18718,7847 18733,7847 18746,7847 18759,7847 18774,7847 18787,7847 18802,7847 18815,7847 18830,7847 18843,7847 18856,7847 18872,7847 18885,7847 18900,7847 18913,7847 18926,7847 18941,7847 18954,7847 18969,7847 18982,7847 18997,7847 19010,7847 19024,7847 19039,7847 19052,7847 19067,7847 19080,7847 19093,7847 19108,7847 19121,7847 19136,7847 19149,7847 19164,7847 19177,7847 19191,7847 19206,7847 19219,7847 19234,7847 19247,7847 19262,7847 19275,7847 19288,7847 19303,7847 19316,7847 19331,7847 19345,7847 19358,7847 19373,7847 19386,7847 19401,7847 19414,7847 19429,7847 19442,7847 19455,7847 19470,7847 19483,7847 19498,7847 19512,7847 19527,7847 19540,7847 19553,7847 19568,7847 19581,7847 19596,7847 19609,7847 19622,7847 19637,7847 19651,7847 19666,7847 19679,7847 19694,7847 19707,7847 19720,7847 19735,7847 19748,7847 19763,7847 19776,7847 19789,7847 19804,7847 19818,7847 19833,7847 19846,7847 19861,7847 19874,7847 19887,7847 19902,7847 19915,7847 19930,7847 19943,7847 19958,7847 19972,7847 19985,7847 20000,7847 20013,7847 20028,7847 20041,7847 20054,7847 20069,7847 20082,7847 20097,7847 20110,7847 20125,7847 20139,7847 20152,7847 20167,7847 20180,7847 20195,7847 20208,7847 20223,7847 20236,7847 20249,7847 20264,7847 20278,7847 20293,7847 20306,7847 20319,7847 20334,7847 20347,7847 20362,7847 20375,7847 20390,7847 20403,7847 20416,7847 20431,7847 20445,7847 20460,7847 20473,7847 20486,7847 20501,7847 20514,7847 20529,7847 20542,7847 20557,7847 20570,7847 20583,7847 20598,7847 20612,7847 20627,7847 20640,7847 20655,7847 20668,7847 20681,7847 20696,7847 20709,7847 20724,7847 20737,7847 20751,7847"/>
 <path fill="none" stroke="rgb(0,69,134)" stroke-width="80" stroke-linejoin="round" d=""/>
 <path fill="none" stroke="rgb(0,69,134)" stroke-width="80" stroke-linejoin="round" d="M 2018,13965 L 2055,13984 2059,13985 2071,13989 2073,13989 2088,13990 2105,13986 2119,13975 2127,13956 2128,13948 2130,13940 2130,13931 2131,13922 2131,13902 2131,13892 2130,13882 2130,13861 2130,13851 2130,13841 2131,13822 2132,13813 2134,13795 2136,13787 2139,13771 2141,13763 2145,13748 2150,13734 2155,13721 2157,13714 2160,13708 2165,13696 2172,13682 2179,13667 2185,13656 2192,13641 2198,13629 2200,13626 2205,13614 2211,13599 2213,13594 2215,13589 2221,13574 2224,13563 2228,13553 2230,13547 2234,13537 2239,13521 2241,13516 2243,13510 2248,13495 2254,13480 2256,13475 2258,13470 2264,13455 2268,13444 2269,13439 2273,13429 2279,13412 2282,13400 2286,13386 2290,13372 2294,13358 2296,13350 2297,13343 2299,13336 2303,13321 2307,13306 2310,13291 2312,13284 2316,13270 2319,13258 2325,13241 2328,13230 2333,13215 2337,13205 2339,13200 2343,13191 2349,13177 2353,13169 2355,13164 2363,13150 2367,13143 2371,13136 2377,13125 2380,13118 2384,13110 2390,13097 2395,13082 2400,13067 2404,13052 2406,13043 2408,13035 2409,13026 2411,13017 2414,13000 2416,12991 2419,12973 2421,12964 2423,12956 2425,12947 2427,12939 2430,12924 2434,12913 2437,12902 2439,12897 2444,12883 2448,12874 2450,12869 2455,12856 2462,12844 2464,12840 2468,12833 2476,12819 2478,12816 2484,12806 2491,12792 2499,12777 2504,12765 2506,12761 2508,12754 2512,12740 2516,12725 2520,12708 2522,12700 2525,12683 2527,12674 2530,12657 2534,12640 2536,12632 2539,12615 2541,12608 2545,12595 2548,12585 2549,12580 2555,12565 2560,12552 2562,12548 2566,12540 2572,12528 2576,12520 2581,12513 2588,12501 2590,12498 2596,12489 2604,12476 2606,12473 2613,12459 2617,12451 2618,12447 2623,12435 2627,12420 2631,12405 2635,12389 2637,12381 2640,12364 2642,12355 2645,12338 2648,12322 2650,12314 2654,12299 2657,12286 2659,12281 2660,12276 2665,12262 2671,12249 2673,12245 2679,12233 2685,12222 2687,12218 2693,12208 2701,12196 2711,12181 2715,12175 2719,12168 2726,12154 2729,12147 2731,12143 2735,12130 2740,12117 2743,12102 2747,12086 2750,12070 2752,12062 2755,12046 2756,12038 2758,12030 2760,12023 2764,12009 2768,11996 2770,11992 2774,11983 2781,11968 2785,11960 2787,11957 2795,11942 2799,11934 2801,11930 2806,11917 2810,11904 2812,11897 2814,11890 2817,11875 2821,11860 2824,11844 2825,11836 2827,11829 2829,11821 2832,11806 2836,11793 2841,11781 2845,11772 2854,11756 2862,11745 2868,11736 2872,11731 2879,11718 2884,11710 2886,11704 2890,11692 2894,11678 2896,11671 2898,11664 2901,11649 2905,11634 2906,11626 2909,11611 2913,11597 2917,11583 2920,11572 2923,11563 2925,11559 2932,11543 2938,11532 2945,11518 2952,11509 2954,11506 2964,11492 2966,11489 2974,11478 2979,11470 2981,11467 2990,11451 2994,11444 2996,11439 3000,11427 3006,11407 3008,11400 3011,11386 3014,11372 3018,11358 3021,11344 3025,11331 3029,11318 3035,11305 3040,11294 3048,11280 3050,11277 3056,11266 3063,11252 3069,11240 3075,11223 3077,11216 3078,11210 3082,11196 3085,11182 3088,11169 3090,11162 3091,11155 3093,11148 3099,11130 3104,11119 3106,11114 3110,11108 3119,11095 3129,11082 3133,11077 3140,11066 3146,11056 3149,11052 3154,11041 3160,11024 3164,11012 3167,10999 3171,10985 3174,10972 3177,10958 3180,10944 3183,10930 3186,10917 3188,10910 3189,10904 3192,10891 3196,10879 3200,10867 3202,10862 3204,10856 3210,10840 3214,10830 3216,10825 3223,10814 3230,10800 3238,10788 3244,10778 3246,10774 3251,10764 3258,10747 3262,10735 3266,10723 3269,10710 3272,10697 3275,10684 3281,10665 3284,10654 3287,10648 3289,10643 3297,10628 3299,10626 3307,10616 3315,10607 3319,10602 3328,10590 3336,10575 3343,10560 3346,10548 3350,10536 3353,10524 3356,10512 3358,10506 3361,10494 3365,10483 3369,10473 3371,10469 3378,10456 3383,10446 3385,10443 3393,10432 3397,10426 3403,10417 3411,10401 3416,10392 3422,10377 3426,10366 3428,10360 3431,10349 3435,10337 3438,10325 3439,10319 3443,10307 3446,10294 3449,10282 3452,10270 3453,10265 3455,10259 3460,10242 3464,10231 3468,10221 3470,10216 3477,10202 3482,10194 3483,10192 3493,10180 3495,10177 3504,10166 3508,10162 3516,10152 3524,10139 3531,10126 3537,10111 3541,10100 3546,10083 3549,10072 3551,10066 3554,10055 3557,10043 3560,10032 3563,10020 3565,10015 3568,10004 3572,9993 3577,9978 3579,9973 3583,9963 3587,9954 3592,9945 3596,9938 3603,9927 3605,9924 3613,9913 3621,9902 3623,9899 3632,9885 3634,9881 3639,9873 3645,9859 3649,9850 3651,9845 3656,9830 3660,9820 3661,9814 3665,9804 3668,9793 3672,9776 3675,9765 3679,9754 3683,9738 3687,9728 3691,9718 3693,9713 3699,9701 3704,9693 3709,9687 3718,9677 3720,9675 3732,9663 3733,9661 3744,9648 3747,9644 3754,9633 3760,9619 3766,9605 3769,9595 3774,9579 3777,9569 3782,9554 3787,9539 3793,9525 3799,9512 3801,9508 3804,9499 3808,9490 3814,9476 3816,9472 3820,9462 3825,9448 3830,9433 3833,9423 3839,9409 3842,9400 3844,9395 3850,9382 3857,9371 3859,9368 3868,9356 3870,9353 3880,9342 3885,9335 3889,9330 3899,9315 3906,9303 3911,9290 3913,9286 3917,9277 3922,9263 3927,9249 3932,9235 3937,9221 3941,9213 3943,9208 3948,9196 3954,9183 3960,9171 3968,9154 3974,9142 3980,9129 3982,9125 3985,9117 3991,9104 3997,9092 4004,9074 4007,9065 4011,9056 4012,9051 4017,9037 4022,9024 4023,9019 4027,9011 4035,8995 4037,8992 4042,8985 4052,8974 4056,8971 4066,8962 4069,8959 4081,8948 4085,8943 4094,8929 4100,8917 4105,8904 4107,8900 4110,8891 4115,8878 4120,8864 4122,8860 4125,8852 4130,8839 4136,8827 4138,8823 4144,8812 4150,8800 4152,8796 4157,8785 4163,8773 4165,8770 4171,8758 4178,8743 4184,8731 4189,8720 4191,8716 4197,8705 4202,8693 4204,8689 4210,8678 4216,8666 4219,8659 4223,8651 4229,8640 4233,8632 4236,8624 4242,8613 4247,8602 4249,8598 4255,8587 4261,8576 4263,8572 4270,8557 4276,8546 4283,8532 4289,8521 4291,8517 4296,8507 4302,8496 4304,8492 4311,8478 4317,8467 4325,8453 4330,8442 4332,8439 4338,8428 4345,8414 4353,8399 4358,8389 4360,8385 4366,8374 4373,8360 4381,8346 4386,8335 4394,8321 4400,8311 4401,8308 4409,8294 4415,8284 4416,8280 4424,8266 4428,8260 4432,8253 4439,8239 4443,8232 4445,8229 4452,8215 4456,8208 4460,8202 4467,8188 4469,8185 4475,8175 4482,8162 4484,8158 4490,8148 4497,8135 4505,8122 4512,8109 4520,8096 4525,8087 4529,8080 4537,8067 4540,8061 4544,8055 4552,8042 4554,8038 4559,8028 4567,8015 4574,8002 4582,7989 4589,7976 4595,7966 4597,7963 4604,7950 4610,7940 4612,7937 4619,7925 4623,7919 4628,7909 4636,7897 4638,7894 4646,7882 4651,7873 4653,7870 4661,7858 4664,7852 4670,7843 4677,7831 4679,7828 4687,7816 4692,7807 4694,7804 4702,7792 4707,7782 4711,7776 4719,7764 4721,7761 4726,7752 4734,7741 4736,7738 4745,7723 4749,7717 4753,7711 4762,7696 4769,7684 4777,7672 4786,7658 4790,7652 4794,7646 4803,7632 4813,7619 4819,7611 4823,7605 4832,7591 4837,7580 4845,7563 4847,7558 4850,7549 4856,7536 4859,7527 4861,7522 4867,7510 4872,7499 4874,7496 4880,7487 4887,7475 4889,7473 4899,7459 4902,7454 4908,7446 4916,7436 4918,7433 4927,7419 4929,7417 4937,7406 4944,7395 4946,7392 4955,7379 4957,7376 4964,7366 4972,7355 4974,7353 4983,7340 4985,7337 4993,7327 4999,7319 5003,7314 5014,7298 5021,7287 5027,7276 5029,7273 5036,7258 5041,7246 5049,7231 5054,7220 5062,7208 5069,7197 5071,7195 5082,7180 5092,7168 5096,7164 5104,7154 5110,7147 5116,7140 5125,7127 5134,7114 5138,7107 5141,7100 5147,7088 5152,7077 5154,7073 5159,7061 5167,7047 5175,7035 5180,7027 5183,7022 5195,7009 5207,6996 5209,6993 5219,6983 5222,6978 5230,6969 5236,6962 5241,6955 5250,6940 5258,6927 5263,6916 5265,6913 5270,6902 5278,6889 5287,6874 5292,6867 5296,6863 5306,6852 5307,6849 5319,6837 5321,6835 5333,6823 5346,6808 5357,6795 5361,6789 5365,6783 5372,6769 5376,6762 5379,6755 5386,6742 5388,6738 5394,6729 5404,6717 5417,6702 5428,6689 5430,6687 5438,6677 5445,6665 5447,6662 5454,6650 5460,6640 5462,6637 5471,6623 5473,6621 5485,6609 5486,6607 5496,6597 5500,6593 5509,6583 5515,6574 5517,6571 5526,6555 5528,6552 5533,6542 5540,6530 5542,6527 5550,6517 5556,6511 5563,6504 5571,6496 5577,6490 5584,6482 5588,6477 5598,6463 5605,6451 5612,6439 5614,6436 5623,6424 5625,6422 5636,6411 5640,6407 5650,6398 5654,6395 5664,6384 5668,6379 5674,6370 5681,6358 5690,6343 5695,6333 5697,6330 5703,6319 5709,6311 5712,6305 5724,6290 5734,6279 5738,6275 5750,6265 5751,6263 5765,6251 5776,6239 5780,6233 5785,6225 5792,6214 5794,6211 5803,6197 5807,6192 5813,6186 5820,6179 5828,6173 5836,6166 5843,6159 5849,6154 5857,6144 5863,6137 5867,6132 5876,6119 5877,6117 5884,6106 5890,6099 5896,6091 5905,6079 5915,6066 5918,6061 5926,6052 5933,6042 5934,6039 5945,6025 5957,6012 5960,6010 5973,5999 5974,5998 5988,5987 6001,5975 6003,5972 6015,5958 6017,5956 6024,5946 6029,5939 6033,5934 6044,5920 6055,5906 6057,5904 6066,5893 6072,5886 6078,5880 6086,5871 6089,5866 6099,5855 6101,5853 6110,5841 6113,5837 6120,5828 6127,5819 6131,5815 6141,5804 6145,5801 6155,5793 6162,5787 6170,5782 6179,5775 6183,5772 6195,5760 6197,5758 6206,5747 6212,5740 6217,5733 6224,5724 6228,5720 6239,5708 6252,5694 6266,5681 6267,5679 6277,5669 6281,5665 6290,5655 6294,5651 6303,5641 6309,5635 6314,5629 6322,5621 6327,5615 6337,5605 6341,5601 6350,5591 6352,5589 6365,5575 6378,5561 6391,5548 6404,5536 6406,5534 6418,5522 6419,5520 6431,5509 6434,5505 6444,5495 6448,5492 6457,5483 6463,5478 6472,5469 6476,5466 6487,5455 6489,5454 6500,5442 6504,5439 6513,5430 6517,5426 6528,5415 6532,5412 6541,5403 6545,5400 6556,5390 6558,5388 6571,5376 6573,5374 6585,5363 6586,5362 6600,5350 6602,5348 6615,5336 6628,5324 6630,5323 6643,5309 6654,5296 6656,5294 6665,5283 6671,5276 6678,5269 6684,5264 6691,5257 6699,5251 6707,5244 6712,5239 6723,5230 6727,5227 6738,5217 6740,5216 6754,5205 6756,5203 6769,5193 6773,5190 6782,5182 6787,5177 6795,5169 6801,5163 6810,5152 6811,5150 6823,5138 6825,5137 6838,5126 6841,5123 6851,5116 6859,5110 6866,5104 6876,5097 6879,5094 6890,5085 6894,5082 6908,5072 6909,5070 6921,5062 6927,5058 6936,5051 6943,5044 6949,5038 6956,5031 6964,5023 6969,5018 6977,5012 6986,5004 6990,5002 7003,4992 7005,4990 7018,4979 7020,4977 7033,4964 7046,4952 7061,4941 7065,4938 7075,4932 7086,4924 7088,4923 7099,4912 7103,4909 7114,4898 7115,4896 7129,4885 7131,4884 7144,4875 7150,4872 7157,4867 7169,4858 7172,4855 7183,4845 7185,4843 7198,4832 7200,4830 7213,4822 7217,4819 7229,4812 7238,4805 7242,4802 7253,4793 7256,4789 7270,4778 7283,4770 7288,4766 7298,4761 7311,4753 7325,4743 7329,4739 7340,4730 7343,4727 7354,4717 7359,4712 7367,4706 7376,4699 7380,4697 7395,4687 7397,4686 7409,4679 7420,4673 7422,4671 7437,4661 7439,4659 7450,4651 7456,4646 7465,4639 7472,4633 7478,4629 7491,4619 7493,4618 7506,4609 7510,4606 7520,4599 7527,4593 7534,4588 7545,4580 7547,4578 7562,4568 7564,4566 7576,4559 7587,4553 7591,4551 7604,4544 7611,4540 7617,4537 7631,4528 7633,4527 7645,4518 7651,4514 7660,4508 7669,4501 7673,4498 7687,4489 7690,4487 7701,4479 7711,4473 7715,4471 7730,4461 7732,4460 7743,4453 7750,4448 7758,4443 7771,4435 7773,4434 7784,4427 7793,4421 7799,4418 7812,4410 7816,4408 7827,4401 7839,4394 7840,4393 7855,4383 7859,4381 7869,4375 7880,4368 7882,4367 7897,4358 7904,4354 7910,4351 7923,4343 7927,4341 7938,4334 7949,4328 7951,4326 7966,4316 7968,4314 7979,4306 7987,4301 7994,4297 8007,4290 8011,4288 8023,4282 8036,4275 8049,4267 8058,4262 8064,4259 8077,4252 8085,4248 8092,4245 8105,4237 8109,4235 8118,4229 8129,4222 8133,4219 8148,4211 8154,4208 8161,4205 8175,4198 8180,4195 8188,4191 8203,4184 8207,4181 8216,4176 8227,4169 8231,4167 8244,4159 8250,4155 8259,4151 8272,4145 8278,4142 8285,4138 8300,4130 8302,4129 8315,4121 8327,4115 8328,4114 8342,4109 8355,4103 8357,4102 8370,4095 8379,4089 8385,4086 8398,4078 8402,4076 8411,4072 8426,4065 8432,4063 8439,4059 8454,4052 8458,4050 8467,4045 8480,4039 8488,4036 8496,4033 8509,4028 8521,4023 8522,4022 8537,4013 8544,4009 8552,4005 8565,3998 8569,3996 8578,3992 8593,3984 8595,3983 8606,3978 8621,3970 8623,3970 8634,3965 8648,3960 8659,3956 8663,3955 8676,3949 8689,3943 8704,3935 8715,3930 8719,3928 8732,3921 8743,3916 8745,3916 8760,3910 8773,3904 8775,3904 8789,3897 8802,3891 8803,3890 8816,3884 8829,3878 8833,3877 8843,3873 8858,3867 8865,3863 8871,3861 8886,3855 8897,3850 8899,3850 8913,3845 8927,3838 8931,3837 8940,3832 8955,3826 8959,3824 8968,3820 8984,3815 8997,3811 9010,3805 9025,3799 9029,3797 9038,3793 9053,3786 9058,3784 9066,3780 9081,3775 9092,3771 9094,3770 9107,3766 9123,3761 9133,3757 9136,3756 9149,3751 9164,3744 9178,3736 9192,3731 9205,3727 9220,3723 9234,3719 9238,3717 9247,3714 9262,3708 9271,3704 9276,3702 9289,3697 9303,3692 9306,3691 9318,3687 9331,3683 9344,3679 9348,3678 9359,3673 9372,3668 9381,3665 9387,3663 9400,3658 9415,3652 9419,3651 9429,3648 9442,3644 9457,3639 9461,3638 9470,3634 9485,3628 9494,3625 9498,3624 9513,3619 9526,3614 9535,3611 9539,3610 9554,3605 9567,3601 9577,3598 9582,3597 9596,3593 9609,3590 9624,3585 9637,3580 9652,3575 9661,3571 9665,3570 9680,3565 9693,3562 9705,3559 9706,3558 9722,3554 9735,3549 9748,3545 9750,3544 9762,3540 9777,3536 9791,3532 9793,3532 9804,3529 9819,3524 9832,3520 9836,3519 9847,3515 9860,3510 9875,3505 9888,3502 9902,3498 9917,3495 9928,3492 9930,3492 9943,3488 9958,3484 9971,3479 9973,3479 9986,3475 9999,3472 10014,3468 10022,3466 10028,3464 10041,3461 10056,3456 10068,3452 10083,3447 10097,3444 10112,3440 10116,3439 10125,3437 10138,3433 10153,3429 10166,3426 10168,3426 10181,3423 10195,3420 10208,3417 10223,3412 10236,3408 10250,3404 10263,3401 10271,3399 10279,3398 10292,3395 10306,3392 10320,3389 10328,3386 10333,3384 10348,3380 10361,3377 10376,3373 10380,3373 10390,3371 10403,3367 10418,3363 10431,3360 10435,3359 10446,3357 10459,3355 10473,3352 10487,3348 10493,3346 10500,3344 10515,3341 10529,3338 10544,3335 10551,3333 10557,3331 10570,3328 10585,3324 10599,3321 10607,3320 10613,3318 10626,3316 10640,3314 10654,3311 10667,3307 10671,3306 10682,3303 10695,3301 10710,3298 10724,3296 10737,3294 10741,3293 10752,3291 10765,3288 10780,3284 10793,3281 10799,3280 10808,3278 10822,3275 10835,3273 10849,3269 10862,3266 10878,3263 10891,3261 10904,3259 10919,3256 10932,3254 10934,3253 10947,3251 10960,3248 10975,3246 10988,3244 11002,3241 11007,3240 11017,3238 11030,3235 11045,3232 11058,3230 11073,3227 11077,3227 11086,3225 11099,3223 11114,3220 11127,3217 11142,3214 11144,3214 11155,3212 11170,3209 11184,3207 11197,3205 11212,3203 11225,3201 11227,3200 11240,3198 11253,3196 11266,3194 11281,3191 11294,3189 11304,3187 11309,3186 11322,3183 11337,3181 11351,3179 11364,3177 11379,3174 11381,3174 11392,3172 11407,3169 11420,3167 11433,3165 11448,3163 11461,3160 11476,3158 11489,3156 11504,3154 11518,3153 11531,3151 11546,3149 11557,3147 11559,3147 11574,3144 11587,3142 11602,3139 11615,3138 11629,3136 11639,3134 11643,3133 11656,3131 11671,3128 11683,3126 11699,3124 11712,3123 11726,3121 11731,3121 11740,3120 11753,3117 11768,3114 11781,3112 11794,3111 11810,3110 11823,3108 11831,3107 11836,3106 11851,3104 11866,3101 11879,3099 11892,3097 11907,3096 11920,3094 11922,3094 11936,3093 11949,3091 11962,3089 11977,3087 11990,3086 12005,3084 12018,3081 12020,3081 12033,3078 12046,3076 12059,3075 12074,3074 12088,3072 12103,3070 12116,3068 12119,3068 12130,3066 12144,3065 12157,3064 12172,3062 12185,3060 12200,3058 12213,3057 12226,3055 12236,3054 12241,3054 12255,3052 12270,3051 12283,3049 12298,3048 12311,3046 12324,3045 12339,3043 12352,3041 12367,3039 12380,3037 12393,3036 12409,3036 12422,3035 12437,3032 12450,3030 12464,3029 12478,3028 12491,3027 12506,3025 12519,3024 12534,3022 12547,3021 12561,3019 12576,3018 12589,3016 12604,3015 12606,3015 12617,3014 12632,3012 12645,3011 12658,3010 12673,3009 12686,3007 12701,3006 12714,3004 12729,3002 12735,3001 12742,3000 12756,2999 12771,2998 12784,2997 12799,2996 12812,2994 12827,2992 12840,2991 12853,2990 12868,2989 12882,2988 12886,2988 12895,2987 12910,2986 12923,2984 12938,2982 12951,2981 12966,2980 12979,2979 12992,2978 13007,2977 13020,2976 13035,2975 13037,2975 13049,2974 13064,2973 13077,2972 13090,2971 13105,2969 13118,2968 13133,2966 13146,2965 13161,2964 13174,2963 13188,2962 13197,2962 13203,2961 13216,2960 13230,2958 13244,2957 13259,2956 13272,2956 13285,2955 13300,2953 13313,2952 13328,2951 13341,2950 13355,2949 13364,2948 13370,2948 13383,2947 13398,2945 13411,2944 13426,2943 13439,2942 13452,2941 13467,2940 13480,2939 13495,2938 13508,2937 13523,2936 13537,2935 13546,2935 13550,2935 13565,2934 13578,2933 13593,2932 13606,2930 13619,2929 13634,2929 13648,2929 13663,2927 13676,2926 13690,2924 13703,2924 13717,2923 13732,2923 13743,2922 13745,2922 13760,2920 13773,2919 13786,2918 13801,2917 13814,2917 13829,2915 13843,2914 13857,2914 13871,2913 13884,2912 13899,2912 13912,2911 13927,2910 13940,2909 13946,2908 13953,2908 13968,2907 13981,2906 13997,2905 14010,2905 14025,2904 14038,2904 14051,2903 14066,2903 14079,2902 14094,2901 14107,2900 14122,2898 14135,2897 14148,2896 14163,2896 14177,2895 14188,2895 14192,2895 14205,2894 14218,2893 14233,2892 14246,2891 14261,2891 14274,2890 14289,2890 14303,2889 14316,2889 14331,2888 14344,2887 14359,2886 14372,2885 14387,2884 14400,2883 14413,2883 14428,2882 14441,2882 14456,2881 14470,2880 14483,2880 14498,2879 14511,2879 14526,2878 14539,2878 14554,2877 14567,2876 14580,2875 14595,2875 14608,2874 14623,2874 14637,2873 14650,2873 14665,2872 14678,2872 14693,2871 14706,2870 14721,2869 14734,2869 14744,2869 14747,2868 14762,2868 14776,2867 14790,2866 14804,2866 14819,2865 14832,2865 14845,2864 14860,2864 14873,2863 14888,2862 14901,2862 14914,2861 14929,2860 14943,2859 14958,2858 14971,2858 14986,2857 14999,2857 15012,2857 15027,2856 15040,2856 15050,2855 15055,2855 15068,2855 15083,2854 15096,2853 15110,2853 15125,2852 15138,2852 15153,2852 15166,2852 15179,2851 15194,2850 15207,2849 15222,2849 15235,2848 15251,2848 15264,2847 15277,2846 15292,2846 15305,2845 15320,2844 15333,2844 15346,2844 15361,2844 15374,2844 15389,2843 15402,2842 15408,2842 15418,2841 15431,2841 15444,2841 15459,2841 15472,2841 15487,2840 15500,2839 15515,2839 15528,2838 15541,2838 15557,2838 15570,2838 15585,2837 15598,2836 15613,2835 15626,2835 15639,2835 15654,2834 15667,2834 15682,2833 15695,2833 15709,2832 15724,2832 15737,2831 15752,2831 15765,2830 15780,2830 15793,2830 15806,2830 15821,2829 15834,2829 15842,2829 15849,2828 15862,2828 15876,2827 15891,2827 15904,2827 15919,2826 15932,2826 15947,2826 15960,2825 15973,2825 15988,2825 16001,2824 16016,2824 16029,2824 16044,2823 16058,2822 16071,2822 16086,2822 16099,2822 16114,2822 16127,2821 16140,2821 16155,2820 16168,2820 16183,2819 16196,2818 16212,2818 16225,2818 16238,2818 16253,2818 16266,2818 16281,2817 16294,2817 16307,2816 16315,2816 16322,2815 16335,2815 16350,2815 16364,2815 16379,2815 16392,2815 16405,2814 16420,2814 16433,2814 16448,2814 16461,2813 16476,2813 16489,2812 16503,2812 16518,2812 16531,2812 16546,2812 16559,2812 16572,2811 16587,2810 16600,2810 16615,2810 16628,2809 16643,2809 16656,2809 16670,2809 16685,2808 16698,2808 16713,2808 16726,2808 16741,2807 16754,2807 16767,2807 16782,2807 16795,2807 16810,2806 16824,2806 16837,2805 16852,2805 16865,2805 16880,2805 16893,2804 16908,2803 16921,2802 16934,2802 16949,2803 16962,2803 16977,2802 16979,2802 16991,2802 17006,2801 17019,2801 17032,2801 17047,2801 17060,2801 17075,2801 17088,2800 17101,2800 17116,2799 17129,2799 17145,2798 17158,2798 17173,2798 17186,2798 17199,2798 17214,2798 17227,2798 17242,2798 17255,2798 17268,2797 17283,2797 17297,2796 17312,2796 17325,2796 17340,2796 17353,2796 17366,2796 17381,2795 17394,2795 17409,2794 17422,2794 17437,2794 17451,2794 17464,2794 17479,2794 17492,2794 17507,2794 17520,2794 17533,2794 17548,2793 17561,2793 17576,2792 17589,2792 17604,2792 17618,2791 17631,2791 17646,2791 17659,2791 17674,2791 17687,2790 17700,2790 17715,2790 17728,2790 17743,2790 17756,2790 17771,2790 17785,2790 17798,2790 17813,2789 17826,2789 17828,2789 17841,2788 17854,2788 17869,2788 17882,2788 17895,2788 17910,2788 17924,2788 17939,2787 17952,2787 17965,2786 17980,2786 17993,2786 18008,2786 18021,2786 18036,2786 18049,2786 18062,2786 18077,2785 18091,2785 18106,2785 18119,2785 18132,2785 18147,2785 18160,2785 18175,2784 18188,2783 18203,2783 18216,2783 18230,2783 18245,2783 18258,2783 18273,2783 18286,2782 18301,2782 18314,2782 18327,2782 18342,2782 18355,2782 18370,2781 18383,2781 18397,2781 18412,2781 18425,2782 18440,2781 18453,2781 18468,2780 18481,2780 18494,2780 18509,2780 18522,2780 18537,2780 18551,2780 18566,2780 18579,2780 18592,2779 18607,2779 18620,2779 18635,2778 18648,2778 18661,2778 18676,2778 18689,2778 18704,2779 18718,2779 18733,2779 18746,2779 18759,2778 18774,2777 18787,2776 18795,2776 18802,2776 18804,2776 18815,2776 18830,2777 18843,2777 18856,2776 18872,2776 18885,2776 18900,2777 18913,2777 18926,2777 18941,2776 18954,2776 18969,2776 18982,2776 18997,2776 19010,2776 19024,2776 19039,2776 19052,2775 19067,2775 19080,2775 19093,2774 19108,2774 19121,2774 19136,2774 19149,2774 19164,2774 19177,2774 19191,2774 19206,2774 19219,2774 19234,2774 19247,2774 19262,2774 19275,2773 19288,2773 19303,2773 19316,2773 19331,2772 19345,2772 19358,2772 19373,2772 19386,2771 19401,2772 19414,2772 19429,2772 19442,2772 19455,2772 19470,2771 19483,2771 19498,2771 19512,2772 19527,2772 19540,2771 19553,2771 19568,2771 19581,2770 19596,2770 19609,2770 19622,2770 19637,2770 19651,2770 19666,2770 19679,2770 19694,2770 19707,2770 19720,2770 19735,2770 19748,2770 19763,2770 19776,2769 19791,2769 19804,2769 19818,2769 19833,2769 19846,2769 19861,2769 19874,2768 19887,2768 19902,2767 19915,2767 19930,2768 19943,2768 19958,2768 19972,2768 19985,2768 20000,2768 20013,2768 20028,2768 20041,2768 20054,2767 20069,2767 20082,2767 20097,2767 20110,2766 20125,2765 20139,2765 20152,2765 20167,2765 20180,2766 20195,2766 20208,2766 20223,2766 20236,2765 20249,2765 20264,2765 20277,2765 20293,2766 20306,2766 20319,2765 20334,2765 20347,2765 20362,2765 20375,2765 20390,2765 20403,2765 20416,2764 20431,2764 20445,2765 20460,2765 20473,2765 20486,2765 20501,2765 20514,2765 20529,2765 20542,2764 20557,2763 20570,2763 20583,2763 20598,2763 20612,2763 20627,2763 20640,2763 20655,2763 20668,2763 20681,2763 20696,2763 20709,2763 20724,2763 20737,2763 20751,2763"/>
 <text class="TextShape"><tspan class="TextParagraph" font-family="Liberation Sans, sans-serif" font-size="353px" font-weight="400"><tspan class="TextPosition" x="1833" y="8414"><tspan fill="rgb(0,0,0)" stroke="none">10</tspan></tspan></tspan></text>
 <text class="TextShape"><tspan class="TextParagraph" font-family="Liberation Sans, sans-serif" font-size="353px" font-weight="400"><tspan class="TextPosition" x="2935" y="8414"><tspan fill="rgb(0,0,0)" stroke="none">13</tspan></tspan></tspan></text>
 <text class="TextShape"><tspan class="TextParagraph" font-family="Liberation Sans, sans-serif" font-size="353px" font-weight="400"><tspan class="TextPosition" x="4038" y="8414"><tspan fill="rgb(0,0,0)" stroke="none">16</tspan></tspan></tspan></text>
 <text class="TextShape"><tspan class="TextParagraph" font-family="Liberation Sans, sans-serif" font-size="353px" font-weight="400"><tspan class="TextPosition" x="5141" y="8414"><tspan fill="rgb(0,0,0)" stroke="none">20</tspan></tspan></tspan></text>
 <text class="TextShape"><tspan class="TextParagraph" font-family="Liberation Sans, sans-serif" font-size="353px" font-weight="400"><tspan class="TextPosition" x="6243" y="8414"><tspan fill="rgb(0,0,0)" stroke="none">25</tspan></tspan></tspan></text>
 <text class="TextShape"><tspan class="TextParagraph" font-family="Liberation Sans, sans-serif" font-size="353px" font-weight="400"><tspan class="TextPosition" x="7346" y="8414"><tspan fill="rgb(0,0,0)" stroke="none">32</tspan></tspan></tspan></text>
 <text class="TextShape"><tspan class="TextParagraph" font-family="Liberation Sans, sans-serif" font-size="353px" font-weight="400"><tspan class="TextPosition" x="8449" y="8414"><tspan fill="rgb(0,0,0)" stroke="none">40</tspan></tspan></tspan></text>
 <text class="TextShape"><tspan class="TextParagraph" font-family="Liberation Sans, sans-serif" font-size="353px" font-weight="400"><tspan class="TextPosition" x="9551" y="8414"><tspan fill="rgb(0,0,0)" stroke="none">50</tspan></tspan></tspan></text>
 <text class="TextShape"><tspan class="TextParagraph" font-family="Liberation Sans, sans-serif" font-size="353px" font-weight="400"><tspan class="TextPosition" x="10654" y="8414"><tspan fill="rgb(0,0,0)" stroke="none">63</tspan></tspan></tspan></text>
 <text class="TextShape"><tspan class="TextParagraph" font-family="Liberation Sans, sans-serif" font-size="353px" font-weight="400"><tspan class="TextPosition" x="11757" y="8414"><tspan fill="rgb(0,0,0)" stroke="none">79</tspan></tspan></tspan></text>
 <text class="TextShape"><tspan class="TextParagraph" font-family="Liberation Sans, sans-serif" font-size="353px" font-weight="400"><tspan class="TextPosition" x="12766" y="8414"><tspan fill="rgb(0,0,0)" stroke="none">100</tspan></tspan></tspan></text>
 <text class="TextShape"><tspan class="TextParagraph" font-family="Liberation Sans, sans-serif" font-size="353px" font-weight="400"><tspan class="TextPosition" x="13869" y="8414"><tspan fill="rgb(0,0,0)" stroke="none">126</tspan></tspan></tspan></text>
 <text class="TextShape"><tspan class="TextParagraph" font-family="Liberation Sans, sans-serif" font-size="353px" font-weight="400"><tspan class="TextPosition" x="14972" y="8414"><tspan fill="rgb(0,0,0)" stroke="none">158</tspan></tspan></tspan></text>
 <text class="TextShape"><tspan class="TextParagraph" font-family="Liberation Sans, sans-serif" font-size="353px" font-weight="400"><tspan class="TextPosition" x="16074" y="8414"><tspan fill="rgb(0,0,0)" stroke="none">200</tspan></tspan></tspan></text>
 <text class="TextShape"><tspan class="TextParagraph" font-family="Liberation Sans, sans-serif" font-size="353px" font-weight="400"><tspan class="TextPosition" x="17177" y="8414"><tspan fill="rgb(0,0,0)" stroke="none">251</tspan></tspan></tspan></text>
 <text class="TextShape"><tspan class="TextParagraph" font-family="Liberation Sans, sans-serif" font-size="353px" font-weight="400"><tspan class="TextPosition" x="18280" y="8414"><tspan fill="rgb(0,0,0)" stroke="none">316</tspan></tspan></tspan></text>
 <text class="TextShape"><tspan class="TextParagraph" font-family="Liberation Sans, sans-serif" font-size="353px" font-weight="400"><tspan class="TextPosition" x="19382" y="8414"><tspan fill="rgb(0,0,0)" stroke="none">398</tspan></tspan></tspan></text>
 <text class="TextShape"><tspan class="TextParagraph" font-family="Liberation Sans, sans-serif" font-size="353px" font-weight="400"><tspan class="TextPosition" x="1477" y="14747"><tspan fill="rgb(0,0,0)" stroke="none">-7</tspan></tspan></tspan></text>
 <text class="TextShape"><tspan class="TextParagraph" font-family="Liberation Sans, sans-serif" font-size="353px" font-weight="400"><tspan class="TextPosition" x="1477" y="13052"><tspan fill="rgb(0,0,0)" stroke="none">-6</tspan></tspan></tspan></text>
 <text class="TextShape"><tspan class="TextParagraph" font-family="Liberation Sans, sans-serif" font-size="353px" font-weight="400"><tspan class="TextPosition" x="1477" y="11357"><tspan fill="rgb(0,0,0)" stroke="none">-5</tspan></tspan></tspan></text>
 <text class="TextShape"><tspan class="TextParagraph" font-family="Liberation Sans, sans-serif" font-size="353px" font-weight="400"><tspan class="TextPosition" x="1477" y="9662"><tspan fill="rgb(0,0,0)" stroke="none">-4</tspan></tspan></tspan></text>
 <text class="TextShape"><tspan class="TextParagraph" font-family="Liberation Sans, sans-serif" font-size="353px" font-weight="400"><tspan class="TextPosition" x="1477" y="7967"><tspan fill="rgb(0,0,0)" stroke="none">-3</tspan></tspan></tspan></text>
 <text class="TextShape"><tspan class="TextParagraph" font-family="Liberation Sans, sans-serif" font-size="353px" font-weight="400"><tspan class="TextPosition" x="1477" y="6272"><tspan fill="rgb(0,0,0)" stroke="none">-2</tspan></tspan></tspan></text>
 <text class="TextShape"><tspan class="TextParagraph" font-family="Liberation Sans, sans-serif" font-size="353px" font-weight="400"><tspan class="TextPosition" x="1477" y="4577"><tspan fill="rgb(0,0,0)" stroke="none">-1</tspan></tspan></tspan></text>
 <text class="TextShape"><tspan class="TextParagraph" font-family="Liberation Sans, sans-serif" font-size="353px" font-weight="400"><tspan class="TextPosition" x="1583" y="2883"><tspan fill="rgb(0,0,0)" stroke="none">0</tspan></tspan></tspan></text>
 <text class="TextShape"><tspan class="TextParagraph" font-family="Liberation Sans, sans-serif" font-size="459px" font-weight="400"><tspan class="TextPosition" x="8025" y="993"><tspan fill="rgb(0,0,0)" stroke="none">Bela Frequency Magnitude Response</tspan></tspan></tspan></text>
 <text class="TextShape"><tspan class="TextParagraph" font-family="Liberation Sans, sans-serif" font-size="388px" font-weight="400"><tspan class="TextPosition" x="8263" y="2045"><tspan fill="rgb(0,0,0)" stroke="none">ADC Level = -12 dB, PGA Gain = 12 dB</tspan></tspan></tspan></text>
 <path fill="none" stroke="rgb(0,69,134)" stroke-width="80" stroke-linejoin="round" d="M 21332,7815 L 22132,7815"/>
 <path fill="none" stroke="rgb(255,66,14)" stroke-width="80" stroke-linejoin="round" d="M 21332,8312 L 22132,8312"/>
 <text class="TextShape"><tspan class="TextParagraph" font-family="Liberation Sans, sans-serif" font-size="353px" font-weight="400"><tspan class="TextPosition" x="22232" y="7935"><tspan fill="rgb(0,0,0)" stroke="none">Bela</tspan></tspan></tspan></text>
 <text class="TextShape"><tspan class="TextParagraph" font-family="Liberation Sans, sans-serif" font-size="353px" font-weight="400"><tspan class="TextPosition" x="22232" y="8432"><tspan fill="rgb(0,0,0)" stroke="none">-3dB</tspan></tspan></tspan></text>
 <text class="TextShape"><tspan class="TextParagraph" font-family="Liberation Sans, sans-serif" font-size="318px" font-weight="400"><tspan class="TextPosition" x="10029" y="15535"><tspan fill="rgb(0,0,0)" stroke="none">Frequency (Hz)</tspan></tspan></tspan></text>
 <text class="TextShape"><tspan class="TextParagraph" font-family="Liberation Sans, sans-serif" font-size="318px" font-weight="400"><tspan class="TextPosition" x="837" y="9792" transform="translate(837,9792) rotate(-90) translate(-837,-9792)"><tspan fill="rgb(0,0,0)" stroke="none">Magnitude (dB)</tspan></tspan></tspan></text>
</svg>